<?xml version="1.0" standalone="no"?>
<!DOCTYPE svg PUBLIC "-//W3C//DTD SVG 20010904//EN"
 "http://www.w3.org/TR/2001/REC-SVG-20010904/DTD/svg10.dtd">
<svg version="1.0" xmlns="http://www.w3.org/2000/svg"
 width="960.000000pt" height="960.000000pt" viewBox="0 0 960.000000 960.000000"
 preserveAspectRatio="xMidYMid meet">

<g transform="translate(0.000000,960.000000) scale(0.100000,-0.100000)"
fill="#000000" stroke="none">
<path d="M2250 9225 c0 -15 8 -29 23 -36 22 -11 197 -184 197 -195 0 -3 9 -18
20 -32 82 -107 196 -322 177 -334 -7 -4 -13 -2 -15 5 -3 15 -122 96 -187 127
-275 130 -573 129 -1015 -6 -80 -24 -170 -53 -200 -65 -30 -11 -71 -25 -90
-31 -19 -5 -46 -16 -60 -24 -14 -7 -45 -22 -70 -32 -107 -45 -150 -66 -150
-72 0 -4 -6 -7 -12 -7 -7 0 -87 -34 -178 -77 -91 -42 -183 -85 -205 -95 -52
-24 -118 -26 -153 -6 -26 16 -66 69 -67 90 0 6 -4 16 -9 24 -13 20 -26 -5 -26
-51 0 -20 -4 -39 -9 -42 -5 -4 -15 -38 -21 -77 -15 -89 -8 -230 18 -365 22
-111 95 -333 113 -345 6 -4 9 -11 6 -17 -4 -5 2 -27 12 -48 74 -155 106 -218
141 -279 21 -38 48 -86 59 -106 11 -19 27 -41 35 -49 9 -7 23 -28 32 -46 9
-18 27 -45 40 -59 13 -14 24 -29 24 -32 0 -22 226 -263 355 -377 119 -106 384
-308 440 -336 5 -3 30 -18 54 -35 l44 -30 -34 -7 c-19 -4 -136 -8 -262 -9
-242 -2 -266 -6 -252 -48 18 -57 548 -263 740 -287 22 -3 56 -10 75 -15 19 -5
63 -9 98 -9 34 0 62 -3 62 -7 0 -5 -18 -42 -40 -83 -22 -41 -43 -82 -47 -90
-3 -8 -22 -40 -41 -70 -78 -123 -81 -132 -56 -158 15 -15 26 -14 137 2 124 18
299 58 329 76 10 5 27 10 37 10 11 0 22 4 26 9 3 5 18 12 33 16 101 22 292
130 389 221 70 65 90 77 78 47 -10 -24 -33 -131 -51 -233 -18 -99 -21 -373 -6
-500 12 -98 59 -327 73 -352 5 -10 9 -22 9 -28 0 -35 152 -379 216 -490 59
-101 120 -198 159 -250 22 -30 48 -66 57 -80 24 -39 190 -202 239 -235 24 -17
66 -47 94 -67 27 -21 73 -47 102 -59 44 -18 52 -25 48 -43 -2 -11 -10 -50 -16
-86 -6 -36 -20 -86 -31 -112 -11 -27 -18 -57 -15 -70 6 -21 62 -116 77 -128
15 -13 117 -169 129 -198 19 -46 8 -113 -31 -181 -17 -31 -35 -58 -38 -61 -12
-8 -40 -68 -40 -84 0 -13 -200 182 -222 216 -4 7 -8 10 -8 6 0 -3 -28 23 -62
59 -35 36 -75 74 -90 84 -26 19 -27 19 -78 -1 -66 -26 -101 -51 -95 -69 3 -8
0 -11 -8 -8 -26 10 -92 -91 -83 -126 3 -12 29 -47 57 -77 162 -176 270 -303
266 -313 -2 -7 -26 -18 -53 -26 -27 -8 -69 -24 -94 -35 -25 -11 -49 -21 -55
-22 -5 -2 -35 -12 -65 -24 -30 -12 -98 -37 -150 -55 -106 -39 -141 -65 -124
-93 26 -40 173 -55 372 -37 l84 7 -26 -48 c-28 -53 -33 -93 -14 -112 26 -26
190 -4 313 44 25 9 48 15 51 12 2 -3 0 -24 -5 -47 -19 -86 45 -108 186 -62
l72 23 29 -33 c16 -19 64 -74 106 -124 l77 -90 -5 -74 c-3 -41 -10 -79 -14
-83 -4 -4 -479 -3 -1055 3 -1004 11 -1048 11 -1067 -6 -25 -22 -26 -47 -2 -67
15 -14 95 -17 607 -22 325 -3 800 -9 1058 -12 l467 -7 0 -56 c0 -62 21 -212
40 -281 6 -25 23 -65 36 -89 13 -24 24 -49 24 -55 1 -34 173 -170 192 -151 2
3 21 -4 42 -15 21 -10 44 -16 52 -13 8 3 20 0 28 -6 20 -17 166 14 261 55 165
71 646 223 855 269 111 25 151 29 416 39 128 5 159 12 186 43 27 29 49 101 53
171 2 35 5 66 7 67 2 2 468 -1 1035 -7 568 -6 1043 -8 1057 -4 35 9 46 51 20
77 -18 17 -54 19 -694 26 l-675 8 -3 33 c-2 17 -6 32 -10 32 -4 0 -8 19 -9 42
-2 23 -7 46 -13 52 -15 15 -12 62 4 75 38 32 297 90 541 121 156 21 399 20
475 0 33 -9 45 -9 48 -1 3 9 8 8 19 -1 8 -6 61 -26 116 -44 56 -18 163 -53
237 -79 166 -57 233 -62 302 -21 74 43 93 70 91 125 -2 55 -27 126 -55 157
-10 11 -18 22 -18 25 0 3 26 4 58 3 93 -4 223 -6 290 -5 60 1 63 2 60 23 -3
23 -5 23 -223 31 -169 5 -229 11 -257 24 -21 9 -38 20 -38 25 0 4 -6 8 -14 8
-8 0 -16 7 -19 15 -7 16 -186 111 -202 106 -5 -1 -6 1 -2 5 5 5 43 10 85 11
42 2 79 8 83 14 4 7 8 7 10 2 4 -9 194 1 419 22 36 3 94 8 130 11 71 7 100 17
100 38 0 26 -39 26 -300 1 -30 -3 -84 -7 -120 -10 -36 -2 -65 -5 -65 -5 0 0
-49 -3 -110 -5 -60 -3 -119 -7 -130 -10 -11 -2 -60 -7 -110 -11 -49 -3 -93 -8
-97 -10 -3 -2 -48 12 -100 32 -85 33 -159 56 -220 68 -85 17 -137 30 -161 43
-15 7 -32 11 -36 8 -5 -3 -72 4 -148 15 -76 11 -140 20 -143 20 -3 0 22 16 56
35 34 19 67 41 74 50 7 8 19 15 27 15 7 0 16 7 19 15 4 8 12 15 19 15 7 0 51
37 99 83 70 68 84 87 79 105 -7 30 -90 70 -130 63 -7 -1 -13 3 -13 9 0 5 -11
10 -24 10 -14 0 -28 5 -31 10 -3 6 -15 10 -26 10 -11 0 -29 5 -40 10 -18 10
-16 15 28 70 98 120 137 204 168 359 13 63 16 108 11 175 -8 106 -33 262 -47
287 -14 27 -43 31 -98 15 -52 -15 -282 -125 -292 -140 -4 -4 -10 -3 -13 3 -4
6 -2 11 3 11 33 0 127 260 150 415 45 295 30 675 -35 892 -25 84 -70 155 -84
132 -4 -6 -12 -9 -18 -5 -11 7 -102 -52 -102 -66 0 -4 -4 -8 -9 -8 -9 0 -56
-41 -166 -142 -29 -27 -54 -48 -56 -48 -5 0 -7 20 -9 78 -1 37 -31 265 -49
374 -15 86 -68 313 -81 343 -5 11 -9 94 -8 185 1 106 -3 185 -12 220 -26 112
-52 205 -60 215 -4 6 -10 23 -14 39 -7 28 -23 64 -95 216 -40 86 -109 202
-127 216 -8 6 -14 18 -14 26 0 8 -9 23 -20 33 -11 10 -20 23 -20 29 0 6 -33
49 -73 96 -92 106 -263 237 -462 355 -168 100 -507 206 -729 229 -32 4 -62 9
-66 11 -14 9 -314 33 -427 35 -88 1 -113 -2 -113 -12 0 -11 -2 -11 -9 0 -15
24 -263 -6 -421 -50 -166 -46 -358 -119 -407 -155 -17 -13 -36 -23 -42 -23 -6
0 -28 -15 -48 -34 -36 -31 -74 -56 -88 -56 -4 0 3 13 15 30 33 46 87 169 108
247 27 96 37 299 22 433 -7 58 -14 122 -16 143 -2 21 -10 64 -18 94 -8 31 -13
60 -10 65 3 4 1 8 -5 8 -6 0 -8 6 -5 14 5 12 -9 79 -36 171 -39 138 -65 215
-72 215 -4 0 -5 6 -2 14 3 8 1 17 -5 21 -6 3 -11 13 -11 21 0 22 -51 148 -62
152 -4 2 -8 9 -8 16 0 20 -40 67 -51 60 -5 -3 -9 -79 -8 -172 0 -118 -4 -188
-15 -240 -9 -40 -16 -76 -16 -80 -1 -13 -30 32 -30 45 0 20 -43 113 -52 113
-4 0 -8 7 -8 15 0 8 -13 30 -30 48 -16 19 -30 39 -30 44 0 23 -242 253 -265
253 -5 0 -20 11 -34 24 -55 50 -292 180 -456 250 -22 10 -59 26 -82 36 -23 11
-84 33 -135 51 -51 17 -105 37 -120 45 -40 21 -58 18 -58 -11z m1104 -2235
c63 -52 115 -99 116 -105 0 -5 -20 -28 -44 -50 -45 -41 -128 -146 -161 -202
-22 -38 -27 -39 -60 -17 l-23 15 41 67 c23 37 52 76 64 87 38 35 61 53 82 65
25 13 27 35 6 44 -26 10 -64 -12 -122 -70 -57 -57 -59 -55 -25 34 11 28 19 52
16 52 -2 0 1 12 7 28 24 58 28 92 12 107 -10 11 -19 12 -33 5 -25 -14 -80 -82
-74 -92 3 -4 1 -8 -5 -8 -22 0 -57 -103 -52 -157 2 -30 31 -10 43 30 17 58 44
112 51 101 3 -5 -6 -36 -19 -68 -30 -73 -31 -96 -4 -96 24 0 24 -3 4 -46 -9
-19 -14 -43 -11 -54 6 -25 3 -25 -25 -1 -13 11 -43 35 -68 53 l-45 34 1 85 c1
93 19 143 71 191 41 38 95 67 120 65 12 -1 73 -45 137 -97z m3336 -892 c53
-57 141 -190 136 -205 -5 -12 22 -96 39 -123 5 -8 10 -19 12 -25 1 -5 5 -23 8
-39 3 -16 26 -90 50 -165 58 -182 75 -244 75 -278 0 -15 7 -59 15 -98 9 -38
18 -92 20 -120 7 -67 15 -143 21 -180 2 -16 6 -109 9 -205 4 -143 2 -170 -8
-149 -29 62 -163 143 -194 118 -10 -9 -13 -8 -13 1 0 10 -22 11 -92 7 -131 -7
-298 -68 -298 -108 0 -29 27 -44 56 -30 35 15 34 16 34 -34 0 -70 28 -189 58
-247 33 -65 94 -102 155 -95 46 6 61 18 93 73 30 51 47 181 37 292 -6 76 0 87
31 53 10 -11 43 -30 74 -42 62 -25 74 -36 68 -61 -7 -29 13 -112 39 -159 28
-52 60 -151 70 -219 4 -25 9 -54 11 -65 12 -54 4 -266 -11 -324 -32 -125 -115
-285 -175 -338 -145 -129 -260 -192 -480 -261 -89 -28 -249 -70 -295 -78 -11
-1 -36 -6 -55 -9 -250 -44 -369 -47 -528 -14 -29 6 -65 12 -80 14 -25 4 -190
39 -237 51 -27 6 -105 24 -130 29 -11 2 -35 8 -53 14 -18 5 -36 11 -40 12 -4
1 -18 6 -32 11 -13 5 -47 14 -75 19 -27 6 -70 17 -94 25 -24 8 -52 12 -63 8
-12 -3 -18 -2 -15 3 6 9 -114 53 -144 53 -8 0 -27 7 -43 15 -16 9 -31 13 -34
10 -3 -3 -10 -1 -16 3 -6 5 -33 16 -61 26 -27 10 -59 21 -70 26 -11 4 -29 11
-40 15 -19 6 -19 7 -2 19 9 7 17 16 17 18 0 3 15 22 33 42 19 20 40 48 47 62
12 21 11 27 -3 42 -17 16 -21 13 -80 -50 -117 -125 -210 -160 -333 -123 -77
23 -178 97 -229 167 -93 129 -145 267 -145 385 0 100 33 225 70 263 8 8 24 27
35 41 27 34 104 59 182 59 43 0 63 4 64 13 0 7 3 6 6 -3 10 -27 36 -50 55 -50
11 0 31 -13 45 -30 26 -31 39 -36 62 -21 12 8 13 16 2 53 -7 24 -19 57 -26 73
-8 17 -19 57 -26 90 -7 33 -14 65 -15 70 -17 70 -35 265 -25 265 4 0 22 -29
40 -65 17 -36 36 -65 42 -65 5 0 8 -4 4 -9 -10 -17 169 -241 193 -241 8 0 21
-8 28 -17 7 -10 16 -14 21 -9 4 5 2 11 -4 13 -7 3 -13 11 -13 18 0 7 -4 15 -8
17 -14 6 -48 62 -66 107 -78 201 -57 477 64 851 38 117 77 216 110 282 10 20
16 39 12 43 -3 3 -2 9 4 13 6 4 36 59 67 123 31 64 66 129 79 145 13 16 31 45
39 64 15 33 19 35 60 33 49 -2 269 -39 320 -53 18 -5 35 -8 37 -5 3 3 11 0 17
-5 7 -6 34 -12 60 -14 26 -2 50 -8 54 -13 7 -11 172 -73 193 -73 29 0 40 25
20 47 -9 11 -21 22 -27 24 -25 10 -95 55 -95 61 0 6 50 -5 105 -23 17 -6 50
-16 75 -24 67 -19 199 -79 286 -131 73 -43 80 -45 102 -32 22 14 29 13 72 -8
119 -57 214 -263 174 -376 -16 -45 -45 -87 -60 -88 -6 0 -23 -9 -37 -20 -14
-11 -32 -20 -41 -20 -9 0 -16 -4 -16 -9 0 -16 46 -61 63 -61 8 0 23 -3 31 -6
13 -5 9 -10 -16 -23 -18 -9 -33 -23 -33 -31 0 -25 44 -23 99 5 71 36 113 78
126 124 5 21 17 45 26 52 38 32 58 92 58 179 1 70 -3 93 -23 130 -26 51 -89
120 -108 120 -7 0 -13 7 -13 15 0 8 -7 15 -15 15 -8 0 -15 3 -15 8 0 10 -73
42 -144 62 l-59 16 44 48 c57 63 187 176 201 176 7 0 6 -5 -2 -15 -7 -9 -10
-18 -7 -21 3 -3 -6 -22 -19 -41 -27 -40 -30 -53 -11 -53 7 -1 6 -5 -5 -13 -15
-12 -22 -35 -19 -64 2 -22 48 -14 68 10 21 26 178 168 238 213 41 32 94 63
108 64 4 0 25 -19 47 -42z m815 -1213 c7 -16 16 -50 20 -75 4 -24 8 -47 10
-50 2 -4 11 -63 19 -132 41 -330 -1 -744 -96 -944 -18 -38 -54 -99 -80 -135
-26 -37 -48 -72 -48 -78 0 -18 -14 -13 -50 19 -18 16 -42 36 -53 43 -19 12
-19 15 -4 63 37 118 46 296 21 423 -33 168 -36 176 -82 271 -35 72 -40 114
-27 265 8 102 -10 77 176 245 151 136 170 149 177 126 2 -6 10 -24 17 -41z
m-790 -371 c8 -4 22 -19 31 -35 36 -70 -62 -124 -122 -68 -31 29 -30 63 2 88
27 21 59 26 89 15z m1095 -908 c36 -96 34 -391 -4 -491 -35 -92 -88 -176 -160
-252 -44 -45 -83 -83 -87 -83 -5 0 -25 -11 -45 -25 -20 -14 -43 -25 -50 -25
-17 0 -64 87 -64 119 1 14 10 62 21 106 11 44 27 109 35 145 8 36 19 84 24
108 18 78 14 91 -45 147 -30 28 -55 56 -55 61 0 10 54 41 215 123 50 25 92 49
95 52 5 6 88 37 103 38 4 1 12 -10 17 -23z m-570 -275 c35 -75 38 -119 9 -152
-11 -13 -39 -46 -62 -73 -44 -52 -86 -75 -211 -116 -71 -23 -120 -64 -122
-101 -1 -16 -29 -93 -61 -168 -13 -32 -15 -33 -27 -15 -13 18 -45 111 -63 184
-8 29 -13 35 -34 33 -13 -1 -84 -7 -157 -13 -73 -7 -163 -10 -200 -6 -37 3
-89 6 -116 6 -59 0 -57 8 5 15 125 16 291 57 366 91 17 8 37 14 45 14 14 0
117 38 133 49 6 4 35 15 65 26 30 10 57 21 60 25 3 3 34 28 70 55 36 27 73 58
83 70 10 11 32 35 48 52 16 18 29 35 29 37 0 3 16 22 35 43 19 21 35 45 35 53
0 21 36 -33 70 -109z m-3363 55 c13 -23 93 -79 158 -111 92 -45 204 -46 292
-3 12 6 28 8 35 6 7 -3 17 -6 22 -6 5 0 12 -5 16 -11 7 -12 78 -41 180 -73 36
-11 81 -27 100 -36 19 -8 64 -23 100 -33 36 -10 90 -25 120 -34 216 -63 588
-153 725 -176 33 -5 71 -12 85 -14 213 -38 736 -63 888 -43 45 6 52 5 52 -10
0 -21 51 -167 77 -219 36 -75 75 -52 124 70 43 110 109 237 123 237 6 0 25 7
41 16 17 9 52 23 79 31 93 28 186 105 225 186 22 46 24 102 5 186 l-7 33 52
-49 c28 -27 51 -58 51 -69 0 -29 -36 -191 -65 -290 -30 -104 -27 -155 14 -231
36 -66 38 -87 11 -131 -11 -18 -20 -39 -20 -46 0 -8 -11 -28 -25 -44 -14 -17
-25 -34 -25 -38 0 -13 -80 -104 -91 -104 -5 0 -17 -7 -26 -15 -35 -29 -369
-183 -468 -215 -55 -18 -109 -36 -120 -41 -17 -8 -56 -18 -170 -44 -26 -6 -35
-9 -184 -39 -68 -14 -149 -29 -180 -32 -31 -3 -59 -8 -63 -11 -5 -2 -36 -6
-70 -8 -35 -3 -106 -9 -158 -16 -111 -12 -650 -6 -750 10 -36 5 -87 12 -115
15 -80 9 -355 68 -400 86 -11 4 -56 20 -100 35 -164 55 -445 209 -445 245 0 8
-18 43 -40 78 -22 34 -40 71 -40 81 0 21 27 78 40 86 13 8 50 94 50 116 0 34
17 20 39 -32 23 -53 43 -68 65 -50 27 23 -11 112 -109 256 -101 147 -160 232
-178 256 -19 26 -19 27 2 74 12 27 24 62 27 79 3 17 12 41 19 53 8 12 12 29 9
37 -8 20 12 21 23 2z m-457 -591 c0 -20 -20 -29 -33 -16 -6 6 -20 11 -31 12
-20 0 -20 1 2 9 12 5 22 14 22 20 0 8 6 8 20 0 11 -6 20 -17 20 -25z m-57 -24
c4 -1 12 -1 17 -1 21 0 9 -20 -15 -26 -14 -3 -25 -12 -25 -20 0 -8 -5 -14 -11
-14 -6 0 -9 7 -5 15 3 8 1 15 -4 15 -6 0 -10 -9 -10 -20 0 -11 -9 -25 -19 -32
-10 -6 -17 -18 -13 -26 4 -12 1 -12 -16 -3 -30 16 -28 32 11 75 25 27 36 33
45 24 6 -6 15 -8 19 -3 5 4 2 10 -4 12 -7 3 -13 9 -13 14 0 6 7 6 18 0 9 -5
20 -9 25 -10z m137 -45 c0 -3 -4 -8 -10 -11 -5 -3 -10 -1 -10 4 0 6 5 11 10
11 6 0 10 -2 10 -4z m4174 -7 c85 -22 206 -62 206 -69 0 -7 -24 -29 -90 -80
-25 -19 -54 -43 -65 -53 -72 -66 -240 -137 -325 -137 l-50 0 17 28 c10 15 26
36 35 46 10 11 18 35 18 53 0 18 14 59 30 90 23 44 42 63 80 85 28 16 50 32
50 36 0 12 49 13 94 1z m-4214 -22 c0 -14 -6 -24 -15 -24 -11 0 -12 4 -3 14 9
11 7 12 -8 7 -18 -6 -17 -5 1 9 26 21 25 21 25 -6z m54 -19 c-4 -15 -3 -18 6
-13 9 5 10 1 5 -16 -9 -27 -28 -44 -33 -29 -2 6 -8 10 -14 10 -6 0 -5 -7 3
-16 12 -14 11 -16 -6 -13 -22 5 -41 59 -20 59 7 0 15 -5 17 -12 2 -6 10 -8 16
-4 9 5 8 11 -3 22 -8 9 -12 21 -8 27 5 8 8 8 11 -1 2 -7 8 -12 13 -12 4 0 5 7
2 17 -4 11 -3 14 6 9 7 -5 9 -16 5 -28z m43 -3 c8 -9 13 -19 9 -22 -7 -7 -36
16 -36 28 0 13 10 11 27 -6z m-167 -15 c0 -5 -4 -10 -10 -10 -5 0 -10 5 -10
10 0 6 5 10 10 10 6 0 10 -4 10 -10z m209 -37 c20 -20 4 -29 -17 -10 -10 10
-26 17 -35 17 -9 0 -17 4 -17 9 0 12 52 0 69 -16z m-229 9 c0 -4 -9 -13 -20
-20 -23 -14 -26 -8 -7 13 13 16 27 19 27 7z m131 -33 c21 20 39 27 39 16 0 -2
-28 -31 -61 -63 -58 -56 -63 -58 -80 -43 -22 18 -24 37 -6 48 6 4 18 20 26 36
l14 27 23 -21 23 -21 22 21z m155 -35 c19 -15 34 -32 33 -38 -3 -27 2 -36 24
-37 l22 -2 -23 -4 c-13 -3 -26 -11 -29 -19 -3 -8 -16 -14 -28 -14 -13 0 -25
-7 -27 -15 -2 -12 -6 -11 -16 6 -12 19 -12 21 2 16 9 -4 16 -2 16 3 0 6 -7 10
-15 10 -9 0 -12 6 -9 15 4 11 -1 15 -17 15 -19 0 -21 2 -9 9 8 6 18 7 22 5 4
-3 8 2 8 11 0 12 -4 14 -19 5 -25 -13 -34 -13 -26 1 4 5 18 15 32 20 16 6 23
14 19 24 -8 21 0 19 40 -11z m59 -54 c3 -5 2 -10 -4 -10 -5 0 -13 5 -16 10 -3
6 -2 10 4 10 5 0 13 -4 16 -10z m-199 -44 c-22 -24 -43 -38 -45 -33 -4 11 62
77 78 77 4 0 -10 -20 -33 -44z m78 -2 c9 -42 11 -49 21 -56 6 -4 2 -8 -9 -8
-12 0 -16 5 -12 15 3 8 1 15 -5 15 -7 0 -9 -10 -5 -23 4 -17 -3 -32 -24 -55
-16 -18 -35 -32 -42 -32 -7 0 -2 7 10 16 25 17 30 39 7 30 -9 -3 -15 0 -15 8
0 8 7 17 16 20 8 3 12 10 9 16 -3 5 1 10 9 10 9 0 18 13 22 35 7 38 12 40 18
9z m235 -38 c22 5 29 0 45 -30 l19 -35 -50 -54 c-87 -96 -91 -173 -11 -241 66
-56 164 -81 221 -55 35 16 60 70 55 118 -2 23 -1 40 2 38 3 -1 26 -13 53 -26
26 -13 47 -28 47 -35 0 -6 -16 -35 -35 -65 -19 -29 -35 -55 -35 -58 0 -8 -43
-42 -90 -70 -25 -15 -47 -30 -50 -33 -18 -22 -210 -74 -210 -57 0 1 9 26 19
56 16 42 18 57 8 72 -6 10 -14 19 -17 19 -8 0 -138 -37 -229 -65 -88 -26 -141
-32 -141 -15 0 6 16 34 35 63 41 61 45 94 13 106 -13 5 -27 6 -32 3 -5 -3 -21
-6 -35 -7 -107 -7 -227 -18 -231 -20 -3 -2 -29 0 -59 3 l-53 7 98 38 c55 21
149 58 209 82 61 23 128 49 149 56 36 13 86 63 86 85 0 33 164 144 184 124 5
-5 21 -7 35 -4z m176 -190 c6 -5 4 -7 -5 -4 -20 7 -67 -18 -80 -41 -16 -30
-12 -59 9 -70 20 -11 32 -3 44 32 14 39 76 8 76 -38 0 -54 -53 -70 -124 -35
-104 50 -116 102 -42 186 l40 45 36 -33 c20 -18 41 -37 46 -42z m3600 55 c80
-11 198 -32 203 -36 1 -1 -11 -31 -27 -66 -41 -91 -68 -200 -77 -302 -8 -104
-2 -99 -144 -117 -119 -14 -333 -62 -425 -95 -65 -23 -71 -23 -82 -8 -7 9 -13
24 -13 32 0 9 -13 54 -28 100 -29 87 -51 116 -73 94 -14 -14 -2 -80 38 -203
34 -108 83 -287 83 -308 0 -16 -24 -17 -357 -14 l-358 4 -46 43 c-92 86 -182
117 -474 160 -22 3 -67 23 -100 44 -33 22 -77 48 -97 58 -187 92 -397 203
-384 203 112 3 200 0 235 -10 24 -6 107 -22 185 -35 198 -34 304 -52 431 -76
222 -41 272 -50 379 -64 118 -16 214 -19 232 -7 6 4 34 36 63 72 29 36 89 109
132 163 43 53 79 101 79 107 0 5 6 13 14 17 7 4 48 55 91 113 121 162 88 145
277 144 90 -1 199 -6 243 -13z m417 -74 c21 -7 38 -15 38 -19 0 -4 -11 -19
-25 -34 -14 -15 -27 -37 -29 -48 -3 -12 -10 -48 -17 -81 -7 -33 -14 -67 -16
-75 -1 -8 -7 -46 -13 -84 -6 -39 -11 -71 -13 -72 -1 -1 -46 -4 -100 -6 l-99
-4 6 60 c15 172 69 339 121 379 12 9 94 0 147 -16z m-990 -20 c-12 -13 -22
-29 -22 -35 0 -7 -4 -12 -9 -12 -8 0 -78 -89 -141 -179 -14 -19 -37 -47 -51
-61 -14 -14 -51 -58 -83 -97 -40 -50 -65 -73 -80 -73 -69 0 -241 27 -759 119
-59 10 -121 18 -137 17 -17 -1 -30 1 -30 6 0 10 12 11 65 9 78 -4 430 50 575
88 151 40 187 50 225 64 22 8 110 40 195 71 85 32 178 68 205 81 64 30 74 31
47 2z m1176 -40 c18 -11 41 -17 52 -14 11 3 20 2 20 -1 -1 -14 -50 -53 -69
-55 -11 0 -18 -4 -16 -8 3 -3 -7 -17 -20 -29 -14 -13 -25 -29 -25 -37 0 -7 -4
-13 -8 -13 -4 0 -15 -12 -24 -27 -9 -16 -25 -37 -35 -48 -10 -11 -29 -37 -43
-57 -26 -38 -46 -41 -34 -5 4 12 9 33 10 47 6 52 44 175 57 185 8 5 12 15 10
22 -2 6 5 14 17 18 11 3 17 11 14 17 -10 15 24 38 44 30 10 -3 32 -14 50 -25z
m172 -68 c0 -5 5 -7 10 -4 6 3 10 1 10 -4 0 -6 -5 -11 -12 -11 -6 0 -8 -3 -5
-6 4 -4 13 -1 22 6 10 8 15 9 15 1 0 -6 11 -11 24 -11 14 0 28 -4 31 -10 3 -5
2 -10 -4 -10 -15 0 -66 -89 -89 -158 -12 -34 -22 -85 -22 -112 0 -28 -5 -50
-11 -50 -5 0 -26 17 -44 38 -35 37 -35 39 -40 147 -1 17 2 42 6 58 4 15 4 41
-1 57 -9 30 -7 32 43 55 60 27 67 29 67 14z m-4080 -30 c0 -10 -7 -19 -15 -19
-9 0 -15 9 -15 25 0 18 4 23 15 19 8 -4 15 -15 15 -25z m106 -18 c21 -10 77
-29 124 -42 90 -24 94 -26 260 -189 70 -69 163 -154 209 -190 22 -18 38 -37
35 -41 -3 -5 -22 -9 -42 -9 -20 0 -43 -4 -49 -8 -7 -4 -28 -6 -47 -4 -31 4
-34 7 -40 45 -4 23 -8 55 -11 71 -5 34 -10 40 -24 31 -6 -3 -11 -38 -11 -79
l0 -72 -72 -21 c-40 -11 -95 -26 -123 -33 -27 -7 -58 -22 -68 -33 -17 -19 -17
-21 0 -39 10 -11 23 -16 32 -12 9 3 50 14 91 24 41 10 88 23 103 29 16 6 37
11 47 11 17 0 18 -4 9 -26 -17 -47 -23 -106 -23 -224 1 -99 4 -124 27 -184 14
-38 38 -86 53 -107 24 -35 84 -89 98 -89 3 0 15 -9 26 -20 l20 -20 -27 -11
c-16 -6 -77 -30 -138 -54 -60 -24 -135 -50 -166 -59 -54 -16 -60 -16 -135 4
-43 12 -81 25 -84 29 -3 4 -26 22 -52 39 -59 41 -82 70 -109 140 -48 128 -59
190 -66 377 -6 160 7 278 61 555 6 32 51 230 52 230 0 0 18 -9 40 -19z m4168
-27 c24 -9 19 -20 -16 -35 -18 -7 -48 -24 -65 -37 -50 -37 -43 -2 9 42 44 38
47 39 72 30z m-4311 -27 c14 -21 13 -31 -3 -103 -10 -43 -24 -113 -30 -154 -7
-41 -16 -79 -20 -83 -4 -4 -27 17 -51 47 -24 30 -50 55 -56 56 -7 0 -13 5 -13
12 0 7 -12 25 -27 41 -19 20 -24 31 -15 34 37 14 111 74 147 120 22 28 43 52
46 52 4 1 14 -9 22 -22z m3953 -59 c-3 -46 -1 -101 4 -123 5 -22 8 -40 7 -41
-3 -3 -181 27 -185 31 -10 10 154 215 171 215 5 0 6 -37 3 -82z m435 10 c0
-10 2 -10 5 -1 6 14 31 7 59 -17 126 -108 161 -173 127 -238 -28 -55 -62 -75
-126 -76 -31 -1 -56 1 -56 4 0 3 -42 19 -92 35 -51 16 -104 35 -118 42 -14 7
-33 13 -42 13 -21 0 -21 3 -7 68 11 52 15 57 112 131 38 29 63 42 77 38 11 -3
23 -1 26 4 8 13 34 11 35 -3z m-3835 -12 c16 -8 57 -17 90 -21 56 -6 61 -9 58
-28 -2 -12 -2 -16 2 -10 7 17 44 -2 44 -22 0 -16 18 -30 27 -21 3 3 0 13 -7
22 -12 13 -11 17 1 25 10 6 7 9 -13 9 -15 0 -29 4 -33 9 -3 6 14 8 42 5 27 -3
59 -7 73 -8 14 -2 31 -4 38 -4 6 -1 12 -7 12 -13 0 -7 -10 -9 -26 -5 -32 8
-101 -4 -83 -14 7 -5 18 -6 26 -3 20 8 16 -17 -9 -54 -28 -41 -43 -42 -57 -3
-5 17 -14 30 -20 30 -21 0 -41 -13 -41 -26 0 -8 -4 -14 -8 -14 -16 0 -55 40
-47 48 4 4 10 1 12 -5 3 -7 9 -13 15 -13 6 0 8 7 4 15 -3 8 2 21 10 30 14 13
13 15 -11 15 -20 0 -26 -4 -21 -15 3 -8 4 -15 2 -15 -3 0 -11 -3 -20 -6 -9 -3
-16 -1 -16 6 0 6 5 8 10 5 6 -3 10 -1 10 4 0 6 -11 11 -25 11 -14 0 -25 4 -25
10 0 5 7 6 17 3 11 -4 14 -3 9 5 -4 7 -1 12 9 12 9 0 14 -4 11 -9 -4 -5 4 -7
16 -3 l22 5 -22 10 c-15 7 -33 7 -55 0 -29 -9 -37 -7 -63 14 -27 23 -27 24 -5
18 16 -5 21 -4 17 4 -9 14 -5 14 30 -3z m294 -76 c0 -5 -4 -10 -10 -10 -5 0
-10 5 -10 10 0 6 5 10 10 10 6 0 10 -4 10 -10z m64 -11 c-8 -13 28 -47 44 -41
6 2 12 -1 12 -7 0 -6 -3 -11 -7 -11 -42 -2 -64 -82 -32 -113 11 -10 19 -13 19
-8 0 5 -4 13 -10 16 -21 13 -9 24 16 15 36 -14 48 -12 30 5 -8 8 -22 15 -31
15 -21 0 -30 27 -15 45 9 10 18 11 37 4 14 -5 42 -7 62 -5 20 3 28 3 19 0 -10
-3 -18 -9 -18 -14 0 -11 45 -21 63 -14 9 3 27 -2 41 -11 14 -9 31 -15 38 -13
7 3 21 -5 30 -18 22 -27 22 -34 3 -34 -8 0 -12 -6 -9 -14 4 -11 -12 -14 -90
-12 -53 1 -96 -2 -96 -5 0 -4 -18 -6 -39 -5 -22 0 -35 4 -29 7 7 5 7 8 0 13
-6 4 -15 -1 -20 -9 -12 -23 -82 -30 -82 -10 0 9 -19 25 -45 36 -25 11 -45 24
-45 30 0 6 7 6 19 -1 11 -5 27 -7 35 -4 11 4 16 0 16 -12 0 -16 2 -16 10 -4 6
9 5 17 -1 21 -6 3 4 6 21 7 30 1 30 0 10 -16 -21 -17 -19 -52 2 -52 6 0 5 6
-2 15 -9 11 -9 15 -1 15 7 0 9 5 6 10 -3 6 0 10 8 10 10 0 15 13 15 45 1 26
-3 45 -10 45 -6 0 -8 11 -6 25 4 17 1 25 -8 25 -8 0 -14 -11 -14 -25 0 -14 -6
-25 -13 -25 -21 0 -28 12 -16 27 6 7 8 13 4 13 -4 0 4 12 18 26 14 14 31 23
37 19 5 -3 10 -1 10 5 0 6 5 8 10 5 6 -4 8 -11 4 -16z m40 -5 c8 -21 8 -24 -3
-24 -5 0 -11 9 -14 20 -6 24 8 27 17 4z m76 -61 c0 -3 -4 -2 -9 1 -5 4 -12 0
-14 -6 -4 -8 -6 -7 -6 3 -1 9 -8 19 -16 23 -8 3 -15 10 -15 16 0 6 14 1 30
-12 17 -12 30 -23 30 -25z m-312 -19 c30 -2 34 -5 28 -19 -3 -8 -1 -15 4 -15
6 0 10 7 10 15 0 8 5 15 10 15 6 0 10 -11 10 -25 0 -20 -5 -25 -25 -25 -14 0
-25 5 -25 10 0 6 -6 10 -12 10 -16 0 -36 41 -29 61 3 10 6 9 10 -6 3 -11 12
-20 19 -21z m102 -8 c0 -3 -7 -6 -15 -6 -9 0 -15 9 -15 21 0 18 2 19 15 5 8
-8 15 -17 15 -20z m30 -6 c0 -15 -33 -50 -48 -50 -9 0 -6 9 10 29 24 31 38 38
38 21z m36 -2 c4 -6 -1 -17 -11 -24 -23 -17 -26 -14 -18 14 6 24 18 28 29 10z
m214 2 c0 -5 -7 -10 -16 -10 -8 0 -12 5 -9 10 3 6 10 10 16 10 5 0 9 -4 9 -10z
m154 -91 c-4 -7 -1 -10 7 -7 8 3 26 -1 41 -9 15 -7 30 -13 34 -12 3 0 8 -1 10
-4 6 -5 -119 4 -125 9 -3 2 4 11 15 19 23 18 27 18 18 4z m169 -128 c43 -5 80
-11 83 -13 2 -3 -1 -39 -7 -79 -14 -91 -6 -231 16 -261 8 -13 15 -29 15 -38 0
-8 11 -32 25 -53 14 -20 24 -37 21 -37 -18 0 -184 -35 -236 -50 -188 -53 -313
-91 -384 -114 -43 -14 -84 -26 -90 -26 -50 0 -195 111 -211 161 -4 10 -10 19
-14 19 -3 0 -7 8 -8 18 -1 9 -9 49 -17 88 -17 79 -14 167 7 279 l13 70 100 13
c54 7 140 19 189 27 94 14 348 12 498 -4z m272 -35 c135 -21 219 -54 295 -116
21 -17 43 -45 49 -62 24 -68 6 -201 -31 -235 -17 -16 -43 -18 -187 -21 l-167
-4 -40 59 c-21 32 -41 60 -44 63 -12 11 -17 261 -7 303 8 31 10 32 132 13z"/>
<path d="M4853 5919 c-6 -6 -9 -18 -5 -27 4 -11 1 -14 -12 -9 -10 4 -15 3 -11
-3 14 -23 -14 -8 -29 15 -22 34 -38 22 -30 -21 5 -28 2 -37 -15 -52 -14 -11
-20 -23 -16 -34 7 -19 52 -30 59 -14 2 6 5 4 5 -6 1 -9 -3 -18 -8 -20 -4 -1
-12 -14 -16 -27 -7 -23 -5 -24 25 -18 24 5 38 2 57 -12 27 -22 53 -18 53 9 0
10 8 24 17 31 15 12 16 12 10 -4 -4 -11 -3 -16 4 -12 5 4 21 -5 35 -20 45 -49
62 5 20 68 -21 31 -22 37 -9 49 13 13 12 17 -3 32 -9 9 -23 15 -31 11 -10 -3
-13 -1 -10 9 7 17 -23 46 -46 46 -9 0 -17 5 -17 10 0 13 -13 13 -27 -1z m67
-179 c0 -5 -4 -10 -10 -10 -5 0 -10 5 -10 10 0 6 5 10 10 10 6 0 10 -4 10 -10z"/>
<path d="M5330 5190 c0 -19 73 -60 137 -76 15 -4 41 -15 58 -25 52 -30 88 -32
118 -9 15 12 27 28 27 36 0 8 3 14 8 14 4 0 13 10 21 21 11 18 11 23 -1 30
-19 13 -21 12 -62 -26 -38 -34 -38 -34 -74 -19 -21 9 -44 18 -52 21 -8 3 -33
14 -55 23 -22 10 -59 20 -82 24 -38 5 -43 3 -43 -14z"/>
<path d="M6548 4648 c-34 -12 -36 -24 -5 -30 24 -5 82 15 92 32 8 13 -50 12
-87 -2z"/>
<path d="M5485 4630 c-8 -12 47 -40 80 -40 36 0 32 26 -6 39 -39 14 -66 14
-74 1z"/>
<path d="M5155 4534 c-11 -2 -81 -10 -155 -19 -74 -9 -147 -23 -163 -32 -16
-8 -26 -10 -23 -5 11 19 -94 -22 -126 -48 -23 -19 -30 -32 -25 -44 8 -21 48
-17 100 9 37 19 41 15 29 -27 -23 -83 -6 -253 30 -292 4 -6 8 -16 8 -23 0 -17
67 -108 106 -145 16 -15 49 -35 74 -46 l44 -19 -52 -6 c-66 -8 -126 -55 -201
-156 -66 -89 -94 -153 -97 -223 -3 -102 41 -143 145 -134 96 8 168 51 244 144
98 123 128 214 98 305 -9 25 -20 39 -37 43 -39 10 -28 22 21 24 25 0 52 1 62
2 9 1 44 20 77 42 48 32 67 53 88 96 52 106 44 309 -16 429 -14 28 -26 53 -26
57 0 4 53 4 118 -1 64 -4 124 -7 132 -7 8 -1 20 -5 27 -10 18 -14 53 1 53 22
0 23 -32 46 -80 56 -35 7 -418 14 -455 8z m-159 -170 c31 -32 32 -91 3 -128
-16 -21 -29 -26 -62 -26 -49 0 -56 4 -79 47 -25 43 -23 57 13 98 40 45 89 49
125 9z m79 -524 c3 -5 1 -10 -4 -10 -6 0 -11 5 -11 10 0 6 2 10 4 10 3 0 8 -4
11 -10z m17 -59 c42 -3 68 -63 48 -111 l-12 -29 -56 55 c-30 29 -61 54 -68 54
-23 0 -26 20 -4 28 19 7 35 8 92 3z m-142 -56 c7 -8 18 -15 24 -15 6 0 17 -9
24 -20 7 -11 18 -20 25 -20 6 -1 27 -21 45 -46 l34 -45 -25 -37 c-35 -51 -72
-92 -84 -92 -6 0 -16 7 -23 15 -7 9 -15 13 -17 11 -7 -7 -123 127 -123 141 0
7 20 34 45 60 24 26 45 51 45 56 0 12 17 8 30 -8z m-81 -247 c18 -21 38 -38
43 -38 5 0 16 -7 24 -15 13 -13 10 -16 -22 -30 -48 -20 -118 -20 -138 1 -21
20 -20 77 1 133 l17 44 21 -28 c11 -16 35 -46 54 -67z"/>
<path d="M4511 4094 c-12 -9 -25 -13 -28 -10 -8 7 -28 -33 -35 -67 -5 -24 -3
-26 17 -21 17 4 24 0 29 -18 8 -33 7 -40 -5 -32 -7 4 -10 -1 -7 -12 2 -10 12
-20 22 -22 11 -2 27 -13 36 -25 l17 -20 21 21 c12 12 28 19 40 15 11 -2 22 0
26 5 9 15 -18 112 -31 112 -7 0 -13 5 -13 10 0 16 -4 24 -20 43 -26 32 -45 37
-69 21z m49 -94 c8 -5 11 -10 5 -10 -5 0 -17 5 -25 10 -8 5 -10 10 -5 10 6 0
17 -5 25 -10z m30 -70 c0 -5 -4 -10 -10 -10 -5 0 -10 5 -10 10 0 6 5 10 10 10
6 0 10 -4 10 -10z"/>
<path d="M4112 3981 c-81 -32 -118 -85 -126 -178 -4 -49 0 -70 19 -109 52
-111 183 -163 289 -115 50 23 89 60 106 102 11 26 11 33 -4 47 -17 16 -19 15
-39 -12 -50 -67 -74 -85 -124 -92 -36 -4 -59 -1 -91 12 -45 20 -52 31 -24 41
9 3 24 11 32 18 20 16 53 25 120 31 60 6 76 15 67 37 -18 48 -201 5 -254 -61
-11 -13 -14 -11 -24 14 -6 16 -14 48 -16 71 -6 48 19 99 65 129 31 20 107 23
141 4 13 -6 26 -8 29 -4 4 4 1 9 -5 11 -7 3 -13 10 -13 18 0 38 -87 60 -148
36z"/>
<path d="M6225 3746 c-61 -60 -84 -106 -52 -106 7 0 39 24 72 54 32 30 62 53
65 52 94 -50 122 -58 136 -44 12 12 13 17 2 25 -13 11 -147 83 -155 83 -2 0
-33 -29 -68 -64z"/>
<path d="M4040 2853 c0 -26 119 -136 212 -196 76 -49 134 -79 260 -136 125
-56 368 -121 402 -108 36 14 12 41 -54 59 -36 10 -90 25 -120 34 -30 9 -64 19
-75 24 -11 5 -49 19 -85 31 -167 56 -376 176 -473 271 -41 41 -67 49 -67 21z"/>
<path d="M6428 2550 c18 -11 34 -20 37 -20 12 0 115 -51 120 -60 6 -9 -33 -22
-126 -41 -94 -19 -445 -12 -624 11 -38 5 -92 12 -120 15 -27 3 -117 17 -199
31 -82 13 -151 22 -154 20 -3 -3 -10 -2 -16 3 -27 21 -226 50 -226 33 0 -11
69 -38 130 -52 19 -4 71 -17 115 -27 176 -44 297 -62 600 -93 221 -23 588 -5
631 31 8 6 14 9 14 6 0 -3 14 -1 30 5 38 13 50 51 25 78 -10 11 -22 17 -26 14
-5 -3 -9 -1 -9 4 0 8 -196 62 -225 62 -5 0 5 -9 23 -20z"/>
<path d="M3385 2800 c3 -5 11 -10 16 -10 6 0 7 5 4 10 -3 6 -11 10 -16 10 -6
0 -7 -4 -4 -10z"/>
<path d="M3280 2710 c0 -11 2 -20 4 -20 2 0 6 9 9 20 3 11 1 20 -4 20 -5 0 -9
-9 -9 -20z"/>
<path d="M3430 2579 c0 -5 5 -7 10 -4 6 3 10 8 10 11 0 2 -4 4 -10 4 -5 0 -10
-5 -10 -11z"/>
<path d="M3450 2554 c0 -8 5 -12 10 -9 6 3 10 10 10 16 0 5 -4 9 -10 9 -5 0
-10 -7 -10 -16z"/>
<path d="M3390 2540 c0 -5 5 -10 10 -10 6 0 10 5 10 10 0 6 -4 10 -10 10 -5 0
-10 -4 -10 -10z"/>
<path d="M3416 2525 c-3 -8 -1 -15 4 -15 6 0 10 7 10 15 0 8 -2 15 -4 15 -2 0
-6 -7 -10 -15z"/>
<path d="M3625 2530 c-3 -5 -1 -10 4 -10 6 0 11 5 11 10 0 6 -2 10 -4 10 -3 0
-8 -4 -11 -10z"/>
<path d="M3655 2530 c3 -5 8 -10 11 -10 2 0 4 5 4 10 0 6 -5 10 -11 10 -5 0
-7 -4 -4 -10z"/>
<path d="M3632 2494 c-7 -8 -8 -14 -3 -14 10 0 25 19 20 25 -2 1 -10 -3 -17
-11z"/>
<path d="M3670 2486 c0 -8 -8 -17 -17 -19 -15 -4 -15 -5 -2 -6 21 -1 44 25 29
34 -5 3 -10 -1 -10 -9z"/>
<path d="M8100 2110 c0 -5 5 -10 11 -10 5 0 7 5 4 10 -3 6 -8 10 -11 10 -2 0
-4 -4 -4 -10z"/>
<path d="M8145 2070 c-3 -5 1 -10 10 -10 9 0 13 5 10 10 -3 6 -8 10 -10 10 -2
0 -7 -4 -10 -10z"/>
<path d="M4790 1910 c0 -6 7 -10 15 -10 8 0 15 2 15 4 0 2 -7 6 -15 10 -8 3
-15 1 -15 -4z"/>
<path d="M4980 1845 c0 -8 4 -15 10 -15 5 0 7 7 4 15 -4 8 -8 15 -10 15 -2 0
-4 -7 -4 -15z"/>
<path d="M4945 1840 c4 -6 11 -8 16 -5 14 9 11 15 -7 15 -8 0 -12 -5 -9 -10z"/>
<path d="M5200 1740 c0 -5 7 -10 15 -10 8 0 15 5 15 10 0 6 -7 10 -15 10 -8 0
-15 -4 -15 -10z"/>
<path d="M5284 1705 c-6 -14 22 -52 32 -43 2 3 -2 11 -11 18 -14 11 -13 14 2
26 17 13 17 13 0 14 -10 0 -20 -7 -23 -15z"/>
<path d="M5355 1703 c-16 -13 -17 -15 -2 -10 9 4 17 4 17 0 0 -3 -8 -12 -17
-19 -10 -7 -13 -14 -6 -14 6 0 15 5 18 10 9 15 45 2 67 -24 9 -11 18 -16 19
-11 1 6 3 21 4 34 2 22 1 23 -10 8 -12 -16 -13 -16 -19 5 -4 13 -10 18 -12 11
-3 -7 -12 -9 -20 -6 -7 3 -12 9 -9 13 10 16 -10 18 -30 3z"/>
<path d="M5257 1656 c-4 -10 -5 -21 -2 -24 9 -9 17 6 13 25 -3 17 -4 17 -11
-1z"/>
<path d="M5158 1653 c7 -3 16 -2 19 1 4 3 -2 6 -13 5 -11 0 -14 -3 -6 -6z"/>
<path d="M5313 1643 c9 -2 25 -2 35 0 9 3 1 5 -18 5 -19 0 -27 -2 -17 -5z"/>
</g>
</svg>
